/* XPM */
static char *f2c14d812c2c470a9b3188258d95c479kQxabRV96QtstXTD[] = {
/* columns rows colors chars-per-pixel */
"50 50 6 1 ",
"  c none",
". c black",
"X c #B28C0A",
"o c #F58507",
"O c #FEBD25",
"+ c #FFC90E",
/* pixels */
"                                                  ",
"                                                  ",
"                                                  ",
"                                                  ",
"                                                  ",
"                                                  ",
"                                                  ",
"                                                  ",
"                                                  ",
"                                                  ",
"                        .                         ",
"                       ...                        ",
"                     ...X...                      ",
"                   ....X+X....                    ",
"                 ....XX+++XX....                  ",
"               ....XX+++++++XX....                ",
"            .....XX+++++++++++XX.....             ",
"            ...XX+++++++++++++++XX...             ",
"            ..X++++++ooooo++++++++X..             ",
"            ..X+++++oo...oo+++++++X..             ",
"            ..X+++++oo.OOoo.++++++X..             ",
"             ..X++++oo.OOoo.+++++X..              ",
"             ..X+++++..Oooo.+++++X..              ",
"             ..X+++++++oo...+++++X..              ",
"             ..X+++++++oo.+++++++X..              ",
"              ..X+++++++..++++++X...              ",
"              ..X++++++oo+++++++X..               ",
"              ..X++++++oo.++++++X..               ",
"               ..X++++++..+++++X..                ",
"               ..X+++++++++++++X..                ",
"                ..X+++++++++++X..                 ",
"                 ..X+++++++++X..                  ",
"                  ..X+++++++X..                   ",
"                   ..X+++++X..                    ",
"                    ..X+++X..                     ",
"                     ..XXX..                      ",
"                      .....                       ",
"                       ...                        ",
"                                                  ",
"                                                  ",
"                                                  ",
"                                                  ",
"                                                  ",
"                                                  ",
"                                                  ",
"                                                  ",
"                                                  ",
"                                                  ",
"                                                  ",
"                                                  "
};
