/* XPM */
static char *_52f077b5f38452acc8532d10f9123fawVrMuJZPcdLALH0e[] = {
/* columns rows colors chars-per-pixel */
"50 50 193 2 ",
"   c None",
".  c #4B4057",
"X  c #4E4C5D",
"o  c #5B4D5F",
"O  c #644E5D",
"+  c #6C4F5F",
"@  c #62515F",
"#  c #5C4F60",
"$  c #564F60",
"%  c #5C5262",
"&  c #555768",
"*  c #5A5566",
"=  c #655363",
"-  c #6B5664",
";  c #6C5967",
":  c #665A6A",
">  c #6C5B6A",
",  c #655867",
"<  c #725564",
"1  c #7B5665",
"2  c #715867",
"3  c #7C5865",
"4  c #755C6A",
"5  c #7B5C6A",
"6  c #715668",
"7  c #576072",
"8  c #5F6778",
"9  c #586576",
"0  c #67606F",
"q  c #6E626F",
"w  c #76616D",
"e  c #7B626D",
"r  c #676475",
"t  c #6A6472",
"y  c #6E6976",
"u  c #776470",
"i  c #7D6670",
"p  c #726976",
"a  c #7E6A72",
"s  c #855C6B",
"d  c #8A5E6B",
"f  c #8B5C65",
"g  c #915D6C",
"h  c #855F70",
"j  c #85626D",
"k  c #8E626E",
"l  c #93626E",
"z  c #9D626F",
"x  c #98686E",
"c  c #846671",
"v  c #8E6471",
"b  c #856A73",
"n  c #8D6F76",
"m  c #8C6A79",
"M  c #946674",
"N  c #9C6572",
"B  c #936C73",
"V  c #9C6A75",
"C  c #9E6A78",
"Z  c #8F7077",
"A  c #8F7278",
"S  c #947379",
"D  c #9D767B",
"F  c #9C797D",
"G  c #967B7C",
"H  c #A9646E",
"J  c #A16671",
"K  c #A26A75",
"L  c #A96B75",
"P  c #A56D78",
"I  c #AB6E7B",
"U  c #A96771",
"Y  c #B16D78",
"T  c #AB727A",
"R  c #A6797C",
"E  c #AB7E7F",
"W  c #B4737D",
"Q  c #BA757F",
"!  c #B37A7D",
"~  c #556F81",
"^  c #5C7B8D",
"/  c #557A8D",
"(  c #6B7584",
")  c #6F7986",
"_  c #657686",
"`  c #617F90",
"'  c #A37E81",
"]  c #AA7D82",
"[  c #BD7680",
"{  c #B67C81",
"}  c #B97E81",
"|  c #C17E81",
" . c #CB7E81",
".. c #DC7681",
"X. c #6F808F",
"o. c #658191",
"O. c #6E8392",
"+. c #738B99",
"@. c #788692",
"#. c #74919E",
"$. c #6B95A3",
"%. c #719BA8",
"&. c #7A98A3",
"*. c #7BA2AD",
"=. c #9E8282",
"-. c #A58283",
";. c #AB8484",
":. c #A6858B",
">. c #B38383",
",. c #BD8486",
"<. c #BE8987",
"1. c #B28988",
"2. c #BA8D8B",
"3. c #BD918D",
"4. c #BA998F",
"5. c #8399A2",
"6. c #86A2A9",
"7. c #89A6AD",
"8. c #85A9B1",
"9. c #8AA9B0",
"0. c #88B0B7",
"q. c #CA8787",
"w. c #C38887",
"e. c #C48C8B",
"r. c #CC8E8C",
"t. c #C38488",
"y. c #DF8E8B",
"u. c #DA8385",
"i. c #C2928E",
"p. c #CB918D",
"a. c #C59691",
"s. c #CA9591",
"d. c #CB9A94",
"f. c #D19592",
"g. c #D19C96",
"h. c #DF9C92",
"j. c #D49F98",
"k. c #EA8487",
"l. c #E48A8A",
"z. c #E98688",
"x. c #F6888B",
"c. c #F28689",
"v. c #E9918D",
"b. c #F0958F",
"n. c #F69A93",
"m. c #C8A597",
"M. c #DDA697",
"N. c #D4A199",
"B. c #E3A195",
"V. c #ECA599",
"C. c #E7A998",
"Z. c #EEAB9B",
"A. c #EBA095",
"S. c #F5A599",
"D. c #FDA398",
"F. c #FDAC9E",
"G. c #C2A5A0",
"H. c #E9B6A1",
"J. c #E6BEA6",
"K. c #EDBAA3",
"L. c #EFB4AA",
"P. c #F4B7A3",
"I. c #F4BBA5",
"U. c #EEC3AB",
"Y. c #F2C5AB",
"T. c #FAC6AB",
"R. c #F7CCAF",
"E. c #FCCAAD",
"W. c #EDCAB2",
"Q. c #F1CAB0",
"!. c #FECDB0",
"~. c #FDCAB9",
"^. c #EDD5BC",
"/. c #FFD2B3",
"(. c #FED0B1",
"). c #FFD4B4",
"_. c #FFD6B5",
"`. c #FFD7B6",
"'. c #FFD4B4",
"]. c #FFD8B7",
"[. c #FFD9B7",
"{. c #FED6B8",
"}. c #FFDABA",
"|. c #FFDBBA",
" X c #EDDCC4",
".X c #ECE3CB",
"XX c #FEE3C4",
"oX c #FFE7C9",
"OX c #FFEFCF",
"+X c #FFE8CA",
"@X c #ECE8D0",
"#X c #FFEED1",
"$X c #FFF4D3",
/* pixels */
"                    b 4 > 4 4 w w w w w u u 4 4 > 5 w 5 w w w w w i w w 4 ; 4 b                     ",
"                m =.|.Z.= V.!.!.E.oX|.{.$XoXE.B.= Z.(.(.E.oX|.|.$X#X+X!.V.= Z.|.=.m                 ",
"          1 :.G.{.`.'.Q.= !.'.!.!.E.!.!.E.E.`.Y.= !.'.E.!.E.!.!.E.E.E.`.R.O R.(.`.{.G.:.3           ",
"        1 L.OX$XXXE.`.K.@ K.'.'.(.'.'.'.(.'.`.H.@ I.`.'.(.'.'.(./.(.(.[.K.= K.`.!.XX$X#XL.3         ",
"      C ~.OX{.T.R.P.S.y.= v.F.P.F.F.F.F.F.F.F.v.= b.F.F.F.F.F.F.F.F.F.F.v.= y.S.P.T.T.`.OX~.C       ",
"    . P.oX(.E.R.Z.l.c...- k d s s d s d d s d v > g M d d d d s d s s d j ; ..c.l.Z.E.R.(.oXL..     ",
"  # w.E.(.E.T.A.c.u.5 5 ; 5 M V V V M V V M 4 = > ~ , % 4 M V V M V V V 5 > 3 5 u.c.A.T.E.E.E.w.#   ",
"  o T./.R./.Z.k. .- % , v I W W W I W I W W P - ; ^ > = K W W W W W W W I M , % =  .z.Z.`.R.`.T.o   ",
"= h.!.!.(.I.n.Q o @ 2 w 2 2 2 2 2 2 > 4 6 2 6 ; > ^ > ; ; ; ; - - - - - - - ; ; @ % Q n.I.(.E.(.h.= ",
"; Y.!.!._.V.k.T $ 4 V W W W W T { T W T W I v - > _ > - 2 2 4 w w 5 w 4 w w 5 4 2 o T k.V._.E./.Y.; ",
"= I.|.|._.F.L X 5 I W W e.m.N.d.d.g.d.N.d.q.I = > #.4 = P q.g.N.j.N.N.j.N.N.p.Q T w X K F._._.|.I.= ",
"- R 3.4.>.! v @ 5 K B l F F F F F F F F F D s = > o.> = s D F R F F F F F F -.V K 5 = k ! >.4.4.R - ",
"; B -.-.D D j - - O - v n n A Z Z Z Z n n A S d > o.> s B A n n n n n A n Z k - O + - j K F -.-.V ; ",
"= P.|.|./.F.Y & _ ( 8 v g.g.d.d.d.d.d.d.d.d.g.,.; ^ , } g.g.d.d.d.d.d.d.g.g.k 9 ( _ & Y F./.|.|.P.= ",
"=  X`.T._.F.H 7 %.8.^ = p.a.a.a.3.a.a.a.a.a.s.a., ` , 2.d.a.a.a.a.a.a.a.a.a.@ o.*.%.7 H F.`.R.`. X- ",
"= .X{.E./.F.U % q q 4 T d.a.a.a.a.a.a.a.a.a.d.2.- +., 2.d.a.a.a.a.a.a.a.a.d.T w y w % U F.(.T.|..X= ",
"= U.(.E.(.F.J 6 { i.e.a.i.a.i.i.a.a.a.3.i.a.i.L 6 6.> N 2.a.3.3.3.3.3.3.3.2.i.2.2.W 6 J F.(.E./.K.- ",
"=  X|.R./.F.L % - = ; , = = - = = = = = = = = = > 8.w - 2 4 4 4 4 4 4 4 4 4 w w w 4 % U F./.T.[. X@ ",
"= K.(.E./.F.L % 2 5 5 5 5 4 5 5 4 5 5 4 4 5 4 6 > &.> I s.a.a.a.d.a.a.a.a.a.a.a.d.w.4 J F./.E.(.K.= ",
"= Y.(.R.[.F.J 6 I { I [ I [ W W W W W { I [ [ N 6 +.: 3.g.a.a.a.a.a.a.d.a.a.a.a.a.N.a z F.[.E./.Y.= ",
"= P.|.|.'.F.L > [ [ I [ [ { I W W W W W [ I W K > &.: { d.g.d.d.d.d.d.d.g.d.d.d.g.f.5 U F./.|.|.I.= ",
"; k G G B B 5 ; 2 5 5 5 5 5 5 5 5 5 5 5 5 s 5 6 > +.> 1 b b b b b c b b b b b b b s 6 e B n G S v ; ",
"- >.d.m.e.| v 2 P -.' ' -.-.-.-.] -.-.-.' -.-.N 6 ^ > d ' -.' ' ' ' -.R ' ' -.' -.C ; v | i.m.m.{ - ",
"@ I.[._.{.F.J i g.d.d.d.s.d.d.d.s.d.d.d.d.d.j.e.= / = ,.j.d.d.d.d.d.a.d.s.d.a.d.d.g.i J F.`./.[.I.= ",
"= .X{.E.'.F.z a g.a.a.d.a.a.d.a.a.a.d.a.a.a.P > ; > ; ; K e.d.a.a.a.a.a.a.d.a.a.d.g.a z F.`.T.|..X= ",
"@  X`.T.(.F.J 6 { a.3.3.3.3.3.3.3.3.3.3.i.K : 6.6.- 5.0.t x <.2.2.2.2.2.2.2.2.2.3.! ; J F./.T.|. X= ",
"- U.`.E.(.F.L % = = # = = = = = = = = = = = > &.6.- ) 8.p + 2 w w 4 4 4 4 w w 4 4 2 = U F.(.E./.U.= ",
"= ^.`.R.(.F.L % 6 4 5 5 5 e 5 5 e 5 5 5 5 6 2 #.6.< O.9.r N s.g.a.d.d.d.a.d.d.d.d.e.4 N F.(.T.[. X= ",
"= K./.E.`.F.L o 5 [ [ [ Q W W W W Q W W W N , #.6.; O.8.t ;.g.i.a.a.i.p.a.a.a.a.a.N.b N F./.E.(.K.= ",
"= U./.E.`.F.L $ 5 I I W W W W W W W W Q W N , $.6.2 ) 8.t K s.N.g.d.m.g.d.d.d.d.g.s.5 N F.[.E./.U.= ",
"= Z.[.|.E.D.T o , ; 5 4 1 1 5 5 5 4 1 5 2 6 4 #.6.6 O.7.p < c n b b b b n b b b n j = I D.E.|.[.Z.= ",
"2 w i j e 5 ; 5 T 1.;.1.;.;.;.;.;.;.;.1.] d > #.6.- O.7.p @ = @ = % = = % = = @ # = ; 4 5 e i e 5 ; ",
"- r.H.J.M.y.l c g.d.a.d.d.d.d.a.d.a.d.a.g.>., +.6.- X.8.p 3 K I P I P P I P I I M 4 % K y.M.J.H.r.- ",
"= Y._.(.`.F.J i g.d.d.a.a.a.a.d.s.d.a.d.g.1., #.6.- X.8.r N [ W W W W W W W W W [ 5 $ L F.|.(.`.Y.= ",
"= .X[.T.`.F.J - T 1.1.1.1.1.1.1.1.1.1.2.{ g > #.6.< O.9.p 1 V K N K V K K V V K v 6 $ L F.`.T.|..X= ",
"= ^.`.E.!.F.K = e b c i 5 e w w w w w w w < : $.9.< o.0.y < w i i i e w i w i c b n = L F.(.R.`.^.@ ",
"= W.`.R.(.F.L ; P E { s.d.d.d.d.d.d.d.d.d.} > 9 5.; 9 X.w ! d.d.d.d.d.d.d.d.f.>.E >.4 J D.`.R.'.W.= ",
"= ^.`.E.(.F.L * ( ) r k a.d.a.p.a.i.a.i.a.s.,.g O / - f { s.a.a.a.a.a.a.a.a.v r ) ( * L F.(.T.'.^.- ",
"= K.E.E.'.F.H 7 $.*.o.% a.d.a.3.a.a.a.i.a.a.d.p.= o., <.d.a.a.a.a.a.a.a.d.a.= / *.$.7 H F.`.E.'.K.= ",
"- U.`.E.[.F.L % 0 0 : T d.d.a.d.d.d.a.d.d.d.s.{ - +., 3.g.d.a.d.a.s.a.d.d.d.P > 0 0 % L F.{.!.'.Y.= ",
"- B.!.(.I.n.I # - - - 4 w 4 4 w 4 4 4 4 w w 4 2 > +.> 2 4 4 4 4 4 4 4 4 4 4 4 - - + % T n.I./.!.B.= ",
"; 2 4 w 5 2 ; 4 V T T P P L P P P P I P P K h = > ^ > V <.3.3.2.2.3.2.3.3.2.2.i.a.{ s ; 2 2 w w 2 ; ",
"= h.E.(.P.n.V 4 Q W W W W W W W { I W W [ [ K = 6 O., 2.d.a.a.s.a.a.a.a.d.a.a.s.a.N.a N n.P.(.E.h.= ",
"- Q.[.E.[.F.L = M P K P C P K C K P K K K C h ; > ^ , <.g.d.d.s.d.d.s.d.d.d.d.d.d.g.e J F.[.E.`.R.= ",
"= .X|.T.'.F.L % % o % % % o # # # # # # # # # - > O.> d ] -.;.;.;.-.-.;.;.;.;.' ;.C - J F./.T.|.@X= ",
"= ^.{.E.`.F.U = v D S S S S S S S S S S S S S s > ^ > - % $ o o # # o o o o o o % = % L F.[.T.[.^.= ",
"= C.`.[.R.D.J e g.g.g.d.g.g.d.g.g.g.d.g.g.g.j.w.- / > - M N M B B M M M M M M M V 4 % L D.T.[.[.C.= ",
"= l.D.S.n.x.J w r.g.d.d.d.d.d.d.d.d.d.d.d.d.d.! ; / > - M [ Q Q Q Q Q Q Q Q Q | T 5 $ L x.n.S.D.l.= ",
"; 5 5 5 s 5 4 2 4 e e w e e w e e e w e e w e 4 ; > ; ; 2 4 4 4 5 5 4 4 5 4 4 5 2 > ; 2 s 5 5 s 5 ; ",
"; - ; = = , ; ; - - - - - - - = - - - = - - - ; 2 - ; 2 ; ; ; ; - ; ; - ; ; - ; - > 2 ; , , = - ; ; "
};
