/* XPM */
static char *_e7c69263a0e4821cf87d38f4b595567IfeeF33vfhluimqb[] = {
/* columns rows colors chars-per-pixel */
"50 50 171 2 ",
"   c None",
".  c #4B4057",
"X  c #4E4C5D",
"o  c #5C4B5F",
"O  c #614D5F",
"+  c #684E5C",
"@  c #564F60",
"#  c #5B4F60",
"$  c #5C5262",
"%  c #614E60",
"&  c #655464",
"*  c #6C5664",
"=  c #6E5967",
"-  c #6D5768",
";  c #605968",
":  c #6D5A69",
">  c #705563",
",  c #7C5764",
"<  c #715967",
"1  c #7C5865",
"2  c #735B69",
"3  c #7B5D6B",
"4  c #5E6576",
"5  c #61606E",
"6  c #6E626F",
"7  c #77616D",
"8  c #7D636D",
"9  c #646573",
"0  c #6C6875",
"q  c #626A79",
"w  c #696A79",
"e  c #6F6573",
"r  c #726673",
"t  c #7E6770",
"y  c #726B79",
"u  c #716876",
"i  c #825E6D",
"p  c #8D5D6B",
"a  c #A55F6B",
"s  c #84616D",
"d  c #8E616E",
"f  c #91626E",
"g  c #866071",
"h  c #8B6372",
"j  c #846B77",
"k  c #8C6A79",
"l  c #936574",
"z  c #9A6676",
"x  c #946A73",
"c  c #9B6B75",
"v  c #9D6878",
"b  c #96777A",
"n  c #9D777A",
"m  c #967B7C",
"M  c #A26771",
"N  c #A46A74",
"B  c #A96B74",
"V  c #A36B79",
"C  c #AB6F7B",
"Z  c #B06F78",
"A  c #AE717B",
"S  c #A9797C",
"D  c #B4727D",
"F  c #BA757F",
"G  c #B47A7D",
"H  c #5C7384",
"J  c #59788A",
"K  c #5A7788",
"L  c #6C7582",
"P  c #617D8D",
"I  c #6E7B89",
"U  c #727F8A",
"Y  c #BD7680",
"T  c #C17E81",
"R  c #CB7E81",
"E  c #DD7681",
"W  c #70808E",
"Q  c #6D8E9C",
"!  c #758894",
"~  c #708492",
"^  c #6D93A2",
"/  c #7393A1",
"(  c #9E8282",
")  c #A48582",
"_  c #A2838D",
"`  c #B38483",
"'  c #BB948C",
"]  c #BA998F",
"[  c #85B6BE",
"{  c #C38887",
"}  c #CC8E89",
"|  c #DA8385",
" . c #DF8E8B",
".. c #C0908A",
"X. c #D0918B",
"o. c #C99F93",
"O. c #DF9C92",
"+. c #E48185",
"@. c #EA8487",
"#. c #E58A89",
"$. c #EC8C8B",
"%. c #F28689",
"&. c #F6888B",
"*. c #EB928E",
"=. c #E5908C",
"-. c #E49F94",
";. c #F69A93",
":. c #F09590",
">. c #C8A597",
",. c #DDA697",
"<. c #E3A296",
"1. c #EAA296",
"2. c #ECA599",
"3. c #E7A998",
"4. c #EDAB9B",
"5. c #F5A599",
"6. c #FDA398",
"7. c #FDAC9E",
"8. c #F5B19F",
"9. c #C2A5A0",
"0. c #E9B6A1",
"q. c #E6BEA6",
"w. c #EDBAA3",
"e. c #EFB4AA",
"r. c #F3B6A4",
"t. c #F4BBA4",
"y. c #FCBCA5",
"u. c #EEC3AB",
"i. c #F3C0A6",
"p. c #F3C5AB",
"a. c #FBC5AB",
"s. c #F7CBAE",
"d. c #FCCAAD",
"f. c #EDCAB2",
"g. c #F2CAB0",
"h. c #FECDB1",
"j. c #FDCAB9",
"k. c #EDD5BC",
"l. c #FFD2B3",
"z. c #FED0B1",
"x. c #FFD3B4",
"c. c #FFD4B4",
"v. c #FFD5B4",
"b. c #FFD6B5",
"n. c #FFD7B6",
"m. c #FFD4B4",
"M. c #FFD8B7",
"N. c #FFD9B7",
"B. c #FFD5B9",
"V. c #FED7B8",
"C. c #FFDBB9",
"Z. c #FFD9BB",
"A. c #FFDCB9",
"S. c #FFDABA",
"D. c #F3D5BB",
"F. c #EDDCC4",
"G. c #F3DCC1",
"H. c #ECE3CB",
"J. c #F3E1C7",
"K. c #FFE5C6",
"L. c #FCE0C2",
"P. c #F2E3C9",
"I. c #FFE7C9",
"U. c #F3E9CE",
"Y. c #FFEFCF",
"T. c #FFE8CA",
"R. c #ECE8D0",
"E. c #F2EED3",
"W. c #FFEED1",
"Q. c #FFF5D3",
"!. c #FEF1D4",
/* pixels */
"                    j 2 = 2 7 7 7 7 7 7 t 7 7 2 = 2 7 7 3 7 7 7 7 t 7 7 2 = 2 j                     ",
"                k ( S.4.& 2.z.z.d.K.S.V.!.I.d.<.& 4.z.z.d.K.S.S.Y.Y.T.d.3.& 4.A.( k                 ",
"          1 _ 9.V.M.z.s.& s.z.d.h.d.h.h.d.d.v.p.& h.z.d.h.d.h.h.d.d.d.v.s.& s.z.v.V.9._ 1           ",
"        , e.Y.Q.L.z.v.w.& w.v.v.z.x.z.x.z.v.v.0.& t.M.v.v.z.x.z.l.z.v.b.w.& w.v.z.L.Q.Y.e.1         ",
"      c j.W.V.a.d.r.5. .& $.y.7.7.7.7.7.7.r.y.#.& :.7.7.7.7.7.7.7.7.7.7.*.&  .5.r.d.d.x.Y.j.c       ",
"    . e.K.z.d.s.4.#.%.E * i p d f d d d p f d d = f f d d f p d f d d d s & E %.#.4.d.d.h.K.e..     ",
"  $ { d.z.d.a.-.$.| 3 3 - x g & & & & & & & & & : ; & & ; & & & & $ & g c = 3 3 | $.-.a.h.d.d.{ $   ",
"  o a.v.d.v.4.@.R * $ & h D Y 2 & = = = < = = = = < = = = = = = = - 7 F F h & $ * R @.4.v.s.v.a.o   ",
"& -.h.h.z.t.;.F # & = 2 2 = 2 : = = = = = = = = = = 2 = = = = = = = = = = = - - & $ F ;.t.h.h.h.O.& ",
"& s.x.a.v.2.+.A # 2 v G A z = : = = = = = = = = = = = = = = = = = = = = - 7 2 3 2 $ A +.2.v.s.v.p.- ",
"% a.S.M.M.7.M X 3 A F D Y D 2 * = = = = = = = = = = = = = = = = = = = - = G Y Y A 3 X M 7.v.M.A.t.& ",
"* S ' ] ` G d & 3 c f l h 3 - = = = = = = 2 = = = = = = = = = = = = = - & 3 h l c 3 & h G ` ] ' S * ",
"* x ) ) n c s * + * i s s h 3 2 = = = = = = = = = = = = = = = = = = = = 3 d h i * + & s N n ) ) x = ",
"& y.A.S.v.7.B 9 ! 4 i F F F A 2 * = = = = = = = = = = = = = = = = = : 2 C F F s 4 ! 9 B 7.v.A.A.t.& ",
"o J.V.d.v.7.a L [ P * D A A F 3 - = = = = = = = = = = = = = 2 = = = - 2 Y A D + P [ y a 7.v.d.V.F.& ",
"O U.S.a.v.7.B $ 6 2 l D A D F 2 & = = = = = 2 = = = = = = = = = = = & = Y A D l 7 0 $ B 7.z.a.S.H.* ",
"% p.z.d.h.7.B & z A A A A A l 2 = = = = = = = = 2 = = = = = = = = = = = h A C A V l * M 7.z.s.z.w.& ",
"% P.V.d.z.7.B $ - & - & & - = = = = = = = = = = = = = = = = = = = = = = 2 2 = 2 2 2 # B 7.v.d.v.F.& ",
"% p.z.s.v.7.B $ 2 3 2 3 7 < = = = = = = = = = = = = = = = = = = = * 2 V D D A D F V = M 7.v.d.z.w.& ",
"% p.x.s.V.7.M - C G D F F V < - = = = = = = = = = = = = = = 2 = - - 3 F A A A A A F 2 M 7.M.d.z.p.& ",
"% y.A.A.z.7.B 2 D D D D G C 2 * = = = = = = = = = = 2 = = = = = = & 7 A F D D D F D - B 7.z.A.A.t.& ",
"- h b m x x 8 * 3 i s i s 3 = = = = = = = = = = = = = = = = = = = = = 3 s d s i s 2 - 8 x x b b h = ",
"* G >.>...T h * d c x l 3 - = = = = = = = = = = = = = = = = = = = = - - & & 3 l c h & h T ..>.>.G * ",
"# a.M.v.V.7.B 2 D D D D A = - = = = = = 2 = = = = = = = = = = = = = = = = = C G D D 2 B 7.M.v.M.t.& ",
"O U.V.d.x.7.M 2 Y A A A D = * = = = = = = = = = = = = = = = = = = = = = - - D D Z F 2 c 7.v.a.V.H.& ",
"O J.v.d.z.7.B & z A A A l = * W / 0 > = = = = = = = = = 2 = = = * 7 / ~ * * h V C l * N 7.z.d.V.F.& ",
"% g.z.s.z.7.B $ * & & & - = * K Q y > * = = = = = = = = = = = = > u Q H = = * - 2 2 $ B 7.z.d.v.u.& ",
"O J.V.d.x.7.B $ 2 2 3 7 - - > q Q y > = = 6 = = = = = = = = = = * u Q K * = * x D C - M 7.v.a.v.F.& ",
"# i.z.d.z.7.B @ 3 A Y F * * = H Q y > = = = = = = = = = = = = = > 6 Q H = = - A D Y 2 M 7.v.d.z.w.& ",
"% s.v.d.M.7.B @ 3 A F D = * > K Q y > = = = = = = = = = = = = = > r Q H > = & z Y C - M 7.v.d.v.i.& ",
"& 8.A.A.d.6.A $ - = 3 7 & = = q Q y + = 2 = = = = = = = = = = = > 0 Q K = = - 2 8 3 & C 6.d.A.M.4.& ",
": 1 s 8 8 3 < 2 l N c c h = * q Q u > = = = = = = = = = = 2 = = > u Q q > = - & & * - 2 8 7 t 8 3 = ",
"& X.0.q.,. .l 3 F D D D A = * H Q y * = = = = = = = < = = = = = * r Q H * * h C z 2 $ v  .,.q.0.} * ",
"o s.v.z.M.7.M 2 F A D G D = * H Q y > = = = = = = = = = = = = 2 > r Q H * - Z Y Y 3 @ B 7.M.z.M.i.& ",
"O E.S.a.x.7.B & l V N v h = > 4 Q 0 > = = = = = = = = = = = = = > u Q K - * g V l 2 $ B 7.v.d.V.H.& ",
"O G.v.s.x.7.N $ 3 3 3 2 = = > K Q y > = = = = = = = = = = = = = > u ^ K > 2 3 3 3 3 $ B 7.z.s.v.k.& ",
"% g.x.d.x.7.B & p M D D V = - q I 6 = = 2 = = = = = = = = = = = > 6 I 4 = N F Z M p & B 7.z.s.x.f.& ",
"% G.v.s.x.7.B ; U 0 i D D = * > > = = = = = = = = = = = 2 = = = = * > * = F Z i w W ; M 7.z.s.v.k.& ",
"% t.x.d.x.7.a I [ J > D G = - = = = = = = = = = < = = = = = = = = = = * = G D * J [ L a 7.x.d.h.w.& ",
"% s.v.h.v.7.B $ 0 : l D z - - = = = = = = = = = = = = = = = = = = = = = = v D l : 0 ; B 7.S.h.v.p.& ",
"% 2.d.v.t.;.C o & - 2 = = - - = = = = 2 = = = = = = = = = = = = = = = = - - 2 2 = * # C ;.t.z.d.<.* ",
"= > 7 7 2 < = 3 N C A V A l = - = = = = = = = = = = = = = = = = = = : = l C A V A z 2 - 2 2 7 7 < = ",
"& <.d.z.t.;.v 2 Y D D F D G 2 * = = = = = = = = = = = = = = = = = = * 2 G D D A D F 2 N ;.t.z.d.O.& ",
"o h.M.d.M.7.B & l V v V V h = = = = = = = = = = = = = = 2 = = = = = * 2 A D D D D D 2 N 7.A.d.v.p.& ",
"O E.A.d.v.7.B $ ; $ $ $ & & = = = = = = = = = = = = = = = = = = = = = = g v x z c h & M 7.v.a.M.R.& ",
"O D.S.d.M.7.N $ s h d h 3 - = = = = = = = = = = = = = = = = = = = = = = * & $ $ $ & $ B 7.M.s.v.k.& ",
"& 4.v.M.a.6.N 2 D F D F A = - = = = = = = = = = = = = 2 = = = = = = = = - i x l c 7 $ B 6.a.M.v.3.& ",
"& #.6.5.;.&.M = C F G F v = = = = 2 = = = = = = = = = = = 2 = = = = = : - Z T Y D 3 @ B &.;.5.6.#.* ",
"- 7 s 1 3 s 2 = 6 3 2 7 < = = = = = = = = = = = = = < = = = = = = = = = = 3 2 2 2 - - 2 8 3 8 i 3 = ",
"< & & & & & - = * - * * = = = = = = = = = = = = = = = = = = = = = = = = = : - = - = = * & * & & & = "
};
