/* XPM */
static char *e1088169b54f47e6ae3eac2a6a7e6ba3BnLrlLjYnjy5EKVF[] = {
/* columns rows colors chars-per-pixel */
"50 50 163 2 ",
"   c #624B5E",
".  c #634F61",
"X  c #675565",
"o  c #6B5666",
"O  c #6E5867",
"+  c #6F5868",
"@  c #715567",
"#  c #715867",
"$  c #755769",
"%  c #795669",
"&  c #745B69",
"*  c #7B5D6C",
"=  c #7C616E",
"-  c #7F6671",
";  c #835E6E",
":  c #895F6E",
">  c #8B5F70",
",  c #85616F",
"<  c #89606F",
"1  c #856370",
"2  c #8C6371",
"3  c #866A74",
"4  c #8C6B75",
"5  c #946573",
"6  c #9A6675",
"7  c #926C76",
"8  c #9C6976",
"9  c #936F78",
"0  c #9C6D78",
"q  c #95747A",
"w  c #9A757B",
"e  c #97797E",
"r  c #9C797E",
"t  c #A36575",
"y  c #A26977",
"u  c #A46C79",
"i  c #AB6E7B",
"p  c #B16F7B",
"a  c #A3747C",
"s  c #AD717D",
"d  c #A17A7F",
"f  c #B3727D",
"g  c #B8747F",
"h  c #977A80",
"j  c #9B7D81",
"k  c #A37D81",
"l  c #AA7C81",
"z  c #B37780",
"x  c #B97480",
"c  c #B47881",
"v  c #B97B82",
"b  c #9C8185",
"n  c #978489",
"m  c #9D8689",
"M  c #A48284",
"N  c #AD8485",
"B  c #A68788",
"V  c #A38B8D",
"C  c #AC8B8A",
"Z  c #B18686",
"A  c #BB8287",
"S  c #B28788",
"D  c #BD8689",
"F  c #B48A8A",
"G  c #BA8E8D",
"H  c #BC8F8D",
"J  c #BC8E8C",
"K  c #BB8D8C",
"L  c #B4918E",
"P  c #BD918E",
"I  c #BD928F",
"U  c #BF928F",
"Y  c #BD918E",
"T  c #A18D90",
"R  c #A39092",
"E  c #AB9493",
"W  c #AC9999",
"Q  c #B59491",
"!  c #BF9591",
"~  c #BF9691",
"^  c #BE9591",
"/  c #B69996",
"(  c #BA9995",
")  c #B79C99",
"_  c #B89E9B",
"`  c #BDA6A2",
"'  c #C08B8B",
"]  c #C08D8D",
"[  c #C28F8E",
"{  c #C28D8D",
"}  c #C1908F",
"|  c #C2918E",
" . c #C5938F",
".. c #C5928F",
"X. c #C6928F",
"o. c #C3918F",
"O. c #C19090",
"+. c #C29390",
"@. c #C19590",
"#. c #C29490",
"$. c #C09792",
"%. c #C59591",
"&. c #C49591",
"*. c #C69591",
"=. c #C69590",
"-. c #C69691",
";. c #C59792",
":. c #C69692",
">. c #C79792",
",. c #C79793",
"<. c #C59591",
"1. c #C89591",
"2. c #C99592",
"3. c #C89792",
"4. c #C79892",
"5. c #C79893",
"6. c #C79993",
"7. c #C29B95",
"8. c #C19B96",
"9. c #C79994",
"0. c #C39D97",
"q. c #C59E97",
"w. c #C79E97",
"e. c #C59A94",
"r. c #C89893",
"t. c #C99993",
"y. c #C99994",
"u. c #C89A94",
"i. c #C99A94",
"p. c #C89B95",
"a. c #CA9A94",
"s. c #CB9B95",
"d. c #CD9B95",
"f. c #CA9C96",
"g. c #CB9D97",
"h. c #CA9E97",
"j. c #CB9E97",
"k. c #CE9C95",
"l. c #CC9C96",
"z. c #CC9D97",
"x. c #CC9E97",
"c. c #CF9F97",
"v. c #CA9A94",
"b. c #C69F99",
"n. c #CB9D98",
"m. c #CC9F98",
"M. c #CC9F98",
"N. c #D09E97",
"B. c #C5A099",
"V. c #C6A59F",
"C. c #C2A29D",
"Z. c #CDA199",
"A. c #CEA29A",
"S. c #CEA49C",
"D. c #CCA29B",
"F. c #D4A29A",
"G. c #D8A39B",
"H. c #C7ABA5",
"J. c #C9AAA4",
"K. c #C9ACA5",
"L. c #CAADA6",
"P. c #CDAAA3",
"I. c #D3A8A0",
/* pixels */
"O O O O o o O o o o O O o o o O O o o o o o o o o O o o o o o o O O O o O o o O o O o o O o o O O O ",
"O O o o o o O o o o o o O o o O O o o O O o O o o o o o o o o o O O O O O O o o o o o O o o o O O O ",
"O O o 8 s i s u i i u i s u s 5 O u s u u s u i s u s i i i i s u # * u 0 u i i i i i u i i i * o O ",
"O O o u f f s f f f f p s f g 8 O f f f f f f f f f s f s f f f f O 2 i i i z p f z f f f p z 1 X O ",
"O O O * 2 < < , % 1 2 2 : : 2 ; % , < , < < < < , * < , < , < < : * ; 2 < 2 : < 2 * * : 2 2 > # O O ",
"O O o u f f g s o i f z z z z c v c z z z f f v 7 0 v g f g g g z v z z z z z z f 2 * v f i z ; X O ",
"O O o u f f h.P o 5 v -.&.-.9.-.i.9.s.9.5.9...G , w  .4.6.6.B.7.-.-.s.h.O.[ -.A y # 1 ! D i f ; o O ",
"O O X a f g x.G X 5 c M.M.M.3.s.d.s.h.M.Z.Z.i.x.d 4 | 4.a.6.6.4.s.d.h.m.S.h.Z.3.p ; & G D i i 1 X O ",
"O o O , 2 < w 9 # 2 q j r r q 9 9 q q q e j j r 3 < r q q q w q q 9 9 q q r j q 5 = * r 9 2 2 % o O ",
"O o y s u s U B.-.U J.J.! 7.&.k X J 5.&.0.K.V.! B.o.U J Y J P o.D X d o.! 0.J.q.7.B.o.U A u s f 1 X ",
"o o i f p c i.-.3.-...o...[ +.N o Z M ] ' '  .5. .i. .3.3.3.5.5.k.& S s.-.-...-.5. .3.i.{ u i 8 * o ",
"o o s g p c x.s.d.s.i...2.$.j 4 @ { q.Z.s.3.i.s.x.s.i.i.i.i.i.i.k.& Z N.i.i.i.i.a.k.s.k...i f f , o ",
"O o 2 5 5 5 d d k k k k k M N 4 O d k d d k d d d d r d d d d M w o 2 M d d d d d M d d 0 5 5 8 & O ",
"O O X 5 u u F d . 5 u Z F Q F Z C.` Q Z Z N N F 9 9 F F L ( ` / L F S Z S N S N y % * F d y y & o O ",
"O O o u s z P M O i ' d.9.,.s.s.3.i.3.A { 3.x.M , N N.3.3.-.1.3.i.i.i.5.5.i.i.-.g , 3 F...p g , X O ",
"O O o u i z P r o ; x 3.9.M.,.3.3.3.i.3.3.h.Z.F.M N x.3.i.i.3.i.3.i.i.i.i.D -. .5 # 4 F.{ p g , X O ",
"O O X 2 u u G d . 5 u F L F N F F Z Z Z S N Z F 9 4 S S Z Z Z Z Z F Z S F F F N 6 & % F d u y & o O ",
"O O 2 6 5 5 d d k B E r M C k 2 o w k M C V k M k k k k j k j k d o 2 k d W E d N k k d 0 5 5 6 & o ",
"O O u f p f i.i.d.x.M.s.s.s.N.S # d.d.s.l.s.s.s.3.s.s.....D ' d.k X S N.s.x.h.i.s.s.x.x.{ f f x 2 X ",
"O o 2 i i a o...3.3.-.-.-.&.d.Z & s.s.-.-.-.-.9.3.-.-.,.l.D.s.3.[ & F d.i. .-.3.3.3.3.i.{ i f f 2 X ",
"o o u f u s U o.-.^ U G G G [ r o D U P G G J J U o.J G G K K +.J o d +.G K J Y U o.$.U Z u i f 1 X ",
"O O o ; 2 2 q 4 O 2 5 q j V R j 9 b r q r q q r 2 1 w j j b b q q 9 9 q q r r 9 5 = * w 7 < 2 & o O ",
"O O X u f g x.J . i A h.h.S.S.m.s.Z.s.9.o.[ *.+.3 N m.s.s.m.M.3.3.d.s.3.*.] *.' u @ 3 G.{ p g ; X O ",
"O O O a f g x.U @ i D 9.*.*.*.-.-.&.&.9.9.M.-.+.q N s.-.-.-.-.-.,.,.-.-.,.,.Z.{ s * , F ' i p < o O ",
"O O o 8 p f s.F . t v ,.-.&.-.5.s.-.$.&.*.*.&.l.d d 9.&.-.&.&.&.-.d.,.*.-.*.*.o.p : # G A i p ; X O ",
"O O & , 2 2 9 4 - q h j h q q 4 1 q q q e n b q 4 2 q q q q q q 9 1 4 q q q n h 9 3 1 r 4 2 2 * O o ",
"o o u f s f  .-.m.P.P.D.q.9.d.l o O.,.9.b.P.D.9.Z.,.&.&.&.&.&.9.3.o k 3.9.M.J.D.q.M.,.,.D i i x 1 X ",
"o O i f i c 9.-.-.+.*.[ [ o.U r & s.-.*.*...+.*.&.,.-.,.+.+.+.G F # S d.,.$...-.-.-.-.9.[ y i u * o ",
"o o s g f c s.d.d.d.s.*.*.s.F 4 # d.s.3.s.,.s.s.3.s.3.-.] *.s.C d o Z d.s.3.s.3.s.s.s.s.+.i f z 1 X ",
"O o ; 2 2 2 q q q q q r j m k 4 # q r r r q q r r q r r r j j M j # 2 r r q r w r q q w 5 2 5 2 & o ",
"O O X 5 u s U l . 6 s G b.H.7.! +.G F F F K G F 5 q U ^ ! 0.H.J.! +.J K S F G Z y % * J v u i & o O ",
"O o o i f c N.F O i D s.-.*.*.,.3.3.*.' [ ,.M.M 1 Z x.-.-.-.o...3.3.3.3.K M.,.&.5 @ 4 F.{ p z 1 o O ",
"O O o u p s +.q o i ' d.3.d.d.s.s.3.3.m.d.d.x.F.Z N x.i.d.s.3.d.s.d.s.l.m.m.m.d.x : 4 F.o.p g , X O ",
"O O o 1 6 8 k w . : 0 k k k k k N k k k k k k M 2 2 M k k k k k k N k k k k k d 6 % & k w 6 6 # X O ",
"O o 6 0 8 0 N N Y / ` _ C Z S 9 X l N C _ _ N F N Z N N N l N Z l . 7 Z Q ` / N Q F Z N a 8 8 u * o ",
"O O 8 f p s *.3.s.3.3.3.s.3.N.S & d.d.s.i.i.i.3.s.3.i...O.' ] 2.k o F N.3.3.3.d.s.s.s.s.{ i f x 2 X ",
"O o 6 s i s *.*.s.-.3.3.-.3.d.F * d.s.-.-.3.s.3.i.3.3.s.h.Z.N.s.3.& F d.3.3.3.3.i.9.-.s.{ p f f 2 X ",
"O o 0 i u u S G G G F S Z S G 0 . N F F F F S S G F F Z Z Z Z F A . 0 K F F F S F G G G l u u i * o ",
"O O o 1 6 5 j 9 o > 7 r E E r r M B r r j d r k 2 1 d M M W R r h k r j r r j w 5 # * k 0 5 5 # o O ",
"O o X u s i *.q o t A s.s.d.i.x.d.d.d.d.{ { 2.+.3 N G.x.h.m.x.v.d.d.3.3.3.s.d.3.x 2 & k F i f 1 X O ",
"O O o u p z s.S O : l *.9.9.D.-.*.,.,.,.*.D.,.3.k 2 j S ] [ *.3.,.-.-.-.,.,.,.-.g 2 - &.J i z ; X O ",
"O O X 6 i s -.N   t c &.$.&.^ ! ,.+.J Y J K G -.d 7 S K +.b.$.^ ^ ,.+.^ U J J K p % * s.D i i * X O ",
"O O * 2 2 2 q j n h q q q q q 2 & 9 q j j T m j q 9 r q q q q q 9 & 2 q r m V j q q 4 q 4 2 2 > % o ",
"o o i x i z 9.Z.I.m.h.s.-.s.F.S @ *.s.3.M.S.S.3.m.3.,.3.3.,.,.s.3.@ N m.s.D.P.Z.d.m.s.s.] i f x 1 X ",
"o o s f i c s.&.o.&.-.o.[ G N w o w ..J ,.-.+.&.-.,.,.,.-.-.-.,.s.& F d.-.-.+.-.-.-.-.9.{ i y 8 * o ",
"o o i z p z -.s.s.s.-.+.*.7.Z 9 O *.l.l.M.,.,.,.s.,.-.,.-.*.*.3.-.O l d.-.9.-.,.9.s.s.s.' p p x 1 X ",
"O O * 1 2 2 w 9 3 4 q q j b j 9 * q j q q q q r 9 7 q q q m j j q * 4 q q q w q 9 4 4 q 5 > 2 ; # O ",
"O O X 8 i s G k X t z o.B.J.&.[ *.^ 9.$.+.G J G 9 w *.$.,.J.V.-.J -.+.o.[ J J F y % * 2.S i z * X O ",
"O O o u z i u 2 # z p z p p p f f f p p z i i u ; 0 x p p p p p f f f f f p i i 8 * , x p z x ; o O ",
"O O o ; 5 2 5 ; O ; 5 2 > > 2 2 2 2 2 2 > 5 2 5 ; * > 2 2 2 2 2 2 2 2 2 2 2 5 2 5 * # 2 5 2 2 # O O "
};
