/* XPM */
static char *_0008fc010854ce882e669e981e2e992hnycfc7AWPaSypK9[] = {
/* columns rows colors chars-per-pixel */
"50 50 22 1 ",
"  c None",
". c #3F3851",
"X c #25667E",
"o c #E44B3B",
"O c #B9355C",
"+ c #DA4949",
"@ c #E36254",
"# c #F07860",
"$ c #EF895A",
"% c #CD8674",
"& c #F69972",
"* c #F6C27D",
"= c #5F7D93",
"- c #298A91",
"; c #37AB9C",
": c #768EA1",
"> c #8CA9B5",
", c #DEB19C",
"< c #ECD4BE",
"1 c #FFEFA9",
"2 c #A5C2C7",
"3 c #F2F7F6",
/* pixels */
"                                                  ",
"                                                  ",
"                                                  ",
"                                                  ",
"                                                  ",
"                                                  ",
"                                                  ",
"                                                  ",
"                                                  ",
"                                                  ",
"                                                  ",
"                .. ......  ....                   ",
"               .*1.1*1**$..$*$o.                  ",
"               .11.1...**..**$$.                  ",
"               .11*1$.$***$**$$.                  ",
"               .*1*1******$**$o.                  ",
"               .................                  ",
"              .33.23.222.2::=.:=.                 ",
"              ...................                 ",
"              ..++%,,,,,%+++++O..                 ",
"               .@,.<<<<<.,@++++.                  ",
"               .#<<####<<<##@++.                  ",
"               .####..#######+O.                  ",
"               .###&&&#&###+@+..                  ",
"               .###########++...    .........     ",
"               .@########+@.O.%,.  .>23233323.    ",
"              ..+@+@##+@#++...,<<. .:>>>>>>>2.    ",
"             .<.++.++++++.O..%,<<. .:>2>>>2>2.    ",
"          .. .,..O.O+O.+O...%%..<. .:>:>>>:>2.    ",
"         .32........................:>>>>>>>2.    ",
"         .2>..=>>>2233323222>>>==...:>>>>>>>2.    ",
"         .>=........................:>>>>>>>2.    ",
"          ..    ...............    .:>>>>>>>2.    ",
"                .X---;-;;----X.    .:>2>>>2>2.    ",
"                .-X.........X-.    .:>:>>>:>2.    ",
"                .X.         .X.    .=:::::::>.    ",
"                 ..          ..     .........     ",
"                                                  ",
"                                                  ",
"                                                  ",
"                                                  ",
"                                                  ",
"                                                  ",
"                                                  ",
"                                                  ",
"                                                  ",
"                                                  ",
"                                                  ",
"                                                  ",
"                                                  "
};
