/* XPM */
static char *d349d5959d14404bf1f6cc6e0ec723d1a2SrkbkIksJf1IpS[] = {
/* columns rows colors chars-per-pixel */
"50 50 201 2 ",
"   c #1D2B4C",
".  c #242C4D",
"X  c #292C4D",
"o  c #352C4D",
"O  c #3B2D4C",
"+  c #26304F",
"@  c #2D324F",
"#  c #33344F",
"$  c #3C324F",
"%  c #352D51",
"&  c #3B2E51",
"*  c #263050",
"=  c #2A3150",
"-  c #343351",
";  c #3C3450",
":  c #2F2B51",
">  c #442F4D",
",  c #43324E",
"<  c #4D344E",
"1  c #53354E",
"2  c #5B354E",
"3  c #54384F",
"4  c #432F54",
"5  c #4D2F52",
"6  c #5B2E54",
"7  c #453352",
"8  c #4B3651",
"9  c #473850",
"0  c #4C3951",
"q  c #533551",
"w  c #5D3454",
"e  c #533B52",
"r  c #5A3C51",
"t  c #6D394E",
"y  c #72384D",
"u  c #7A3B4D",
"i  c #632D56",
"p  c #633255",
"a  c #6A3355",
"s  c #6B3C52",
"d  c #6E3358",
"f  c #643C51",
"g  c #733356",
"h  c #7A3055",
"j  c #7C3459",
"k  c #753756",
"l  c #4D4256",
"z  c #4E4A5F",
"x  c #5B4354",
"c  c #5F4856",
"v  c #69404F",
"b  c #634655",
"n  c #6C4453",
"m  c #644856",
"M  c #6C4955",
"N  c #6E4C59",
"B  c #724554",
"V  c #7A4352",
"C  c #7C4C55",
"Z  c #744D59",
"A  c #784C58",
"S  c #724A57",
"D  c #7C5359",
"F  c #7A5057",
"G  c #795B61",
"H  c #7F6E6C",
"J  c #833E4E",
"K  c #8B3C4D",
"L  c #86354F",
"P  c #943D4D",
"I  c #9A3F4D",
"U  c #853555",
"Y  c #8B3654",
"T  c #8E3956",
"R  c #85335A",
"E  c #933654",
"W  c #943A54",
"Q  c #9B3D53",
"!  c #943555",
"~  c #A33D4C",
"^  c #A93F4F",
"/  c #A23A54",
"(  c #A83E50",
")  c #B23F51",
"_  c #BE3E4A",
"`  c #C43F4A",
"'  c #83424F",
"]  c #8C424D",
"[  c #94434E",
"{  c #9C414D",
"}  c #9B4A4F",
"|  c #854552",
" . c #804C57",
".. c #8A4F58",
"X. c #8D4853",
"o. c #974852",
"O. c #84565C",
"+. c #8A555A",
"@. c #85585D",
"#. c #8C595B",
"$. c #845357",
"%. c #9B5658",
"&. c #A3414D",
"*. c #AC434D",
"=. c #BC404C",
"-. c #BA4A4E",
";. c #AA4557",
":. c #A24D54",
">. c #A94A59",
",. c #BC4C52",
"<. c #BF4E59",
"1. c #A35D5B",
"2. c #AA5D5D",
"3. c #A95356",
"4. c #B25556",
"5. c #B55C5A",
"6. c #BA5D59",
"7. c #BC5A57",
"8. c #AB605F",
"9. c #B7625D",
"0. c #BD675D",
"q. c #80706D",
"w. c #AD6562",
"e. c #AE6864",
"r. c #B76661",
"t. c #B46963",
"y. c #BC6D62",
"u. c #BE7263",
"i. c #C4414C",
"p. c #C34D4F",
"a. c #C44C53",
"s. c #C84D55",
"d. c #C55352",
"f. c #CB5251",
"g. c #C35E59",
"h. c #CA5B58",
"j. c #D55959",
"k. c #D75C58",
"l. c #C5625B",
"z. c #CA635B",
"x. c #C56B5E",
"c. c #C86C5D",
"v. c #D2645B",
"b. c #D46A5E",
"n. c #DB6B5D",
"m. c #C6705F",
"M. c #D3715F",
"N. c #E3705E",
"B. c #E16E5D",
"V. c #DA6F60",
"C. c #C47363",
"Z. c #CC7564",
"A. c #D37663",
"S. c #D47965",
"D. c #DB7B65",
"F. c #DD7662",
"G. c #C86C60",
"H. c #E37461",
"J. c #EE7765",
"K. c #E37E66",
"L. c #EA7C64",
"P. c #E37D6B",
"I. c #F17E64",
"U. c #FF7D68",
"Y. c #F27564",
"T. c #E68067",
"R. c #EA8166",
"E. c #E4836E",
"W. c #EB8369",
"Q. c #F48267",
"!. c #F4856E",
"~. c #FA876F",
"^. c #FF886E",
"/. c #EF8971",
"(. c #F38971",
"). c #FE8A70",
"_. c #FC9D7B",
"`. c #FDA27E",
"'. c #EFA682",
"]. c #F1AD86",
"[. c #FEAC84",
"{. c #F1A783",
"}. c #FCB087",
"|. c #F4B68B",
" X c #FFBC8E",
".X c #F4B88C",
"XX c #FBC393",
"oX c #FCCA96",
"OX c #FCCD99",
"+X c #FED29C",
"@X c #FDD5A1",
"#X c #FEDBA3",
"$X c #FDDCA9",
"%X c #FFE0A3",
"&X c #FEE5B2",
"*X c #FFECBB",
"=X c #FFEAB6",
"-X c #FFFAC5",
";X c #FFF4CC",
":X c #FFFFCA",
">X c #FFF7D5",
/* pixels */
"].+X;X*X&XoXD w.}.oX#X;X*X$X+X;X&X+X$XOX}.t.M `.OX;X#X$X@XoX`.S w.}.oX#X;X;X&X=X@X[.8.G oX&X*X-X+X].",
"OXOXoXoXoX#XH 2.+XOXoXoXXXOXOXoXoXOXoXOX@Xt.s  X+XoXoXOXoX+X XB w.+X+XoXoXXXoXXX+X+X2.H #XoXoXoXOXOX",
"OXOXoXOXoX%XH 2. X+XOXoXOXOXOXOXOXOXOX@X Xt.n [.+XOXOXOXOXOX[.S w. X+XOXOXOXOXOX+X X2.H #XOXoXoXOX+X",
"|.OXOXOX+X+XG w./.|.+XoXOXOXOXOXOXOXOX|./.t.S !.'.OXOXOX+X'.(.Z e./.|.+XOXOXOX+X|./.w.G +X+XOX+XOX].",
"E.].XXXXXX_.S r.)./.(./.(./.(./.(.(.(./.).y.S ).(.(.(.(.(./.).A r.~.~.(././.~././.~.r.Z _.XXXXXX].E.",
"J.!.!.!.!.~. .u r.e.t.w.t.w.w.w.w.w.w.e.t.J 1 9.t.w.w.w.w.t.9.2 V r.e.w.w.w.e.e.e.r.u  .^.!.!.!.!.J.",
"t Z Z Z Z C 2 + . X . X X   .       . . . * =     X .         - @       . . X X . X * 2  .Z Z S A t ",
"e.w.e.e.r.u @ ; ; , ; $ ; R I I Q E w w ! Q &.Q j 7 R Q { Q E q a ! { ~ W k # $ ; ; ; = u r.e.w.w.e.",
"[.+X X/.~.r.. d ( [ P h % E &.*.~ ~ 6 p ~ *.~ ~ Y & ! ~ *.&.~ 5 g ^ *.&.~ U % Y { &.d . r.~./. X+X[.",
"OX+X+X|.!.t.. ; ; q b b b c r $ < c b m 1 $ 3 m c b b r $ < b b m < O r c x m v q ; ; X t.!.|.@XOX@X",
"#XOXOX+X(.w.X # ; a.W.K.K.T.H.3 5.L.K.T.l.0 V.T.D.K.K.N.e l.K.K.L.5.e H.K.D.T.K.,.& - X w.(.+XOXoX*X",
"=XXXOXOX/.t.X - & >.S.A.S.S.b.< :.S.A.D.4.< z.S.A.S.S.z.> 4.S.S.D.:.< v.A.A.S.M.;.& - X w.(.OXOXOX+X",
";XXXOXOX/.w.X ; 7 8 e < 9 0 e < 8 e 0 9 , 9 0 e 8 9 e 0 9 8 e 9 < 8 9 e e < 9 < 8 9 ; X t./.OXoXoX&X",
";XOXOXOX/.w.  Y =.-.A.g., 7.S.A.S.S.b.1 :.D.S.S.4., l.S.S.S.V.2 X.D.S.A.S.3.0 h.,.) U . w./.OXoXoX;X",
"#XoXOX+X(.w.  W i.a.K.b.< v.T.K.K.T.H.r 4.R.K.R.z.e n.R.K.K.J.n :.R.K.K.R.6.3 N.d.i.!   w./.OXOXoX#X",
"OXOX+X|.!.t.. 7 r q r 1 # 1 c b b m f , 1 M b b 1 $ r m b M f , 1 b b x x < O 1 3 w 8 X t./.|.+XOXOX",
"}.+X X/.).r.X # - T 9.0.u.0.Q & * h I &.j + 4 E { { I U % X # ; - @ & Q 9.y.C.9.Y ; # X r.)./. X+X}.",
"w.w.w.t.r.V - - , d.R.R.T.R.j.6 - 7 # X X X X X ; ; - * X X X ; ; - 2 k.R.T.R.R.a., # # | r.t.w.w.w.",
"S B B Z A 2 ; - - p  .O.#.$.s ; # - 1 +.@.O.@.' , $ y F A A C < ; # - k F O.#. .p @ # ; 2 A A S n B ",
"[. X[.!.).9.. p K u ..V o u ' K k . ..~.).!.~.U.9 9 Y.Q.W.Q.^. .. k K u +.y O J ' T p . 5.).(.[.XX`.",
"XX+X+X'.!.t.  Q i.f.R.H.e H.k.` *.X @.(.P.'.oX+Xl l +XoX{.P.).@.. =.i.=.H.c.r I.f.i.Q   w./.{.+X+XoX",
"@XXXOX+X/.w.  d &.[ 1.o.o [ } { R . O.!.'.+X+X%Xl l %X+X+X'.(.O.. j { K 1.' O } } { g . w.(.+XOXoX*X",
"$XOXOXOX(.t.* - - e M M Z M w ; - X @.~.oX+XoX+Xl l +XoX+XoX~.+.X - - w n N Z n q # # X r./.oXoXXX>X",
"$XOXOXOX(.w.X - 4 d.W.K.K.K.j.1 - + | U.OX%X-X:Xl l :X-X$X+XU.| X - 1 j.T.T.T.R.a.4 - X w./.OXOXOX*X",
"&XXXOXOX/.w.X # $ >.Z.Z.Z.Z.>.< # ; , 0 l l z z 9 ; z z l l 0 , ; # 7 ;.m.Z.Z.c.Q ; # X w.(.OXOXOXOX",
"OXOXOXOX/.w.X 7 8 8 0 8 $ < < 0 9 $ $ 0 l l z z ; ; z z l l 0 , ; 7 0 8 e 9 , < 8 8 7 X w.(.OXOXoX&X",
"-XXXOXOX(.w.  Y i.-.D.z.0 z.=.=./ + ' U.+X%X-X:Xl l :X-X%X+XQ.| * / =.d.K.4.e v.a.=.T   w.(.OXOXOX$X",
">XXXOXOX(.w.  W =.p.F.z.0 h.=.i./ . O.~.oX+XoX+Xl l +XoX+XoX~.@.X / =.d.K.4.1 n.a.i.T   w.(.OXOXoX$X",
"*XoXOX+X(.w.. 7 8 1 e < $ 1 1 1 7 . O.!.'.OX@X#Xl l #X@X+X'.W.@.X 9 q < e < $ < 0 q 7 . w.(.OX+XOX@X",
"oX+X+X'.!.t.. ; g r z.C.Z.C.;.4 - X @.).K.'.oX+X0 l +XoX`.T.(.@.X @ 7 ;.x.C.Z.x.Q - # X t.!.'.+X+XXX",
"`.XX[.~.).9.. ; P b Q.T.K.R.j.q # X +.).(.~.~.^.9 0 U.~.~.(.).+.X - 2 k.R.T.T.L.a.7 # X r.).!.[.XX`.",
"S B S Z A 2 - $ 7 $ n Z D  .s 7 $ - 2 ..+.O.O.| , 7 | @.+.O...2 - - % r M N F n 6 - # ; 2 A F B s S ",
"8.w.w.e.r.| = a P [ %.o.o . # ; 7 ; # @ X . . . - ; . . . . . @ ; j I [ 8.u O { [ { a = | r.e.w.w.w.",
"}.+X X/.).r.  Q ` f.R.L.9 # ; ; ; $ ; ; 9 3 1 1 9 7 8 e 1 1 0 8 ; *.i.k.W.x.x L.f.i.I   t.~./. X+X}.",
"oX+X+X|./.w.. a P T 1.] o . X @ ; = X . 6 P P K i X g K K [ K h % 6 K ] %.y O ] ] T a . w.!.|.+XOXOX",
"#XoXoX+X(.w.X # - 4 < F +.+.#.V > V #.+.+.2 $ C O.+.D $.t o B @.O.$.1 , C D O.C w - # @ w./.+XOXOX#X",
";XoXoXOX(.w.X - q L $.Q.T.K.R.H.3 M.R.K.Q.4.M I.R.L.K.W.b.e H.R.K.Q.%.C I.L.K.L.s., # X w.(.OXOXXX;X",
"&XoXOXOX(.w.X - 7 p v c.C.y.y.3.O :.Z.C.0.J 5 6.u.C.y.m.:.O 3.Z.u.x.y 2 0.C.C.0.W & # X t.(.OXOXoX&X",
"OXOXOXOX(.w.. 9 3 1 r < $ < x x c r O > x x x x < o 1 x r b e O > r x x r 8 & 1 q e 7 . t./.OXOXOX+X",
"*XoXOX+X(.w.  W i.p.K.b.< v.K.D.K.L.V ..L.D.K.K.l.< M.K.D.T.L.f %.L.D.K.K.6.e n.f.` E   w./.+XOXOX$X",
"#XOX+X|./.t.  T =.-.A.z., g.D.D.D.H.V | H.D.S.D.7.< z.D.D.D.H.f o.K.D.S.D.3.1 v.,.=.U   e./.|.+XOXOX",
"[.+X X(.~.t.. ; 9 e 3 1 < 1 r 0 9 9 ; 7 9 0 e r 1 8 e r 9 9 < ; , 9 0 e r 1 < 1 q 9 7 . r.).(. X+X}.",
"e.w.w.w.r.u = # ; R I P { I Y 7 - - ; ; - ; U P P I [ U ; - o ; ; @ 4 Y P [ I P U ; # = u r.e.w.w.e.",
"t Z A Z Z  .2 = . .   .     . . . - - . . X . . .   . = - . X X X X . . . . . . . . = 2  .Z Z S Z t ",
"J.(.!.I.!.^. .u r.t.w.w.w.w.w.e.r.| 2 6.w.t.w.w.w.e.5.r | r.w.t.w.w.t.w.w.w.w.w.e.r.u  .~.!.!.!.!.J.",
"E.].XXXXXX_.S 9.~./.(.(.(.(.(./.).r.A )./.(.(.(.(.!.).S y.)./.(.(.(.(.(././.(.(.!.).r.S _.XXXXXX'.E.",
"].OX@XOX+X+XG w./.|.+XOXOXOXOX|./.w.A (.'.OXOXOXOX'.!.N t./..X+XOXOXOXOXOXOXOX+X|.(.w.G OX+XOX+XOX|.",
"@XOXOXoXoX$Xq.2. X+XOXOXOXOXOX+X Xw.S [.+XOXOXOXOX+X[.n t. X+XOXOXOXoXOXOXOXOXOX+X X2.q.%XOXoXOXOX+X",
"oXoXXXOXOX#Xq.2.+X+XoXOXoXoXoXOX+Xw.B  X+XOXoXoXXX@X Xs t.+XOXoXOXoXXXoXoXoXoXoXOX+X1.H #XOXXXoXoXOX",
"].@X;X*X&XoXD 2.}.+X$X+X&X;X#XoX}.w.B {.oX@X$X#X;XOX_.M t.}.oX&X+X&X;X@X$X*X;X#XoX}.w.G oX&X*X;X+X]."
};
